<svg width="17" height="18" viewBox="0 0 17 18" fill="none" xmlns="http://www.w3.org/2000/svg">
<path d="M4.18927 6.26635C5.11475 6.26635 5.86499 5.46476 5.86499 4.47596C5.86499 3.48716 5.11475 2.68558 4.18927 2.68558C3.2638 2.68558 2.51355 3.48716 2.51355 4.47596C2.51355 5.46476 3.2638 6.26635 4.18927 6.26635Z" fill="black"/>
<path d="M15.0815 9.84712V2.53339C15.0815 1.13689 14.0174 0 12.7103 0C12.0819 0 11.4787 0.268558 11.0346 0.74301L9.98729 1.862C9.85324 1.81724 9.7108 1.79038 9.55998 1.79038C9.22484 1.79038 8.91483 1.89781 8.6551 2.07685L10.9676 4.54758C11.1352 4.27007 11.2357 3.93885 11.2357 3.58077C11.2357 3.41963 11.2106 3.2764 11.1771 3.12422L12.2244 2.00523C12.3501 1.87095 12.526 1.79038 12.7103 1.79038C13.0958 1.79038 13.4058 2.12161 13.4058 2.53339V9.84712H7.66642C7.41506 9.65913 7.18884 9.44428 6.97937 9.20258L5.80637 7.81503C5.64718 7.62704 5.44609 7.47486 5.22825 7.36743C4.96851 7.23315 4.68364 7.16154 4.39039 7.16154C3.35144 7.17049 2.51358 8.06568 2.51358 9.17572V9.84712H0V17.0087H1.67572V17.9038H15.0815V17.0087H16.7572V9.84712H15.0815Z" fill="black"/>
</svg>
