<svg width="16" height="15" viewBox="0 0 16 15" fill="none" xmlns="http://www.w3.org/2000/svg">
<path d="M14.1511 0.897778C13.9733 0.373334 13.4756 0 12.8889 0H3.11111C2.52444 0 2.03556 0.373334 1.84889 0.897778L0 6.22222V13.3333C0 13.8222 0.4 14.2222 0.888889 14.2222H1.77778C2.26667 14.2222 2.66667 13.8222 2.66667 13.3333V12.4444H13.3333V13.3333C13.3333 13.8222 13.7333 14.2222 14.2222 14.2222H15.1111C15.6 14.2222 16 13.8222 16 13.3333V6.22222L14.1511 0.897778ZM3.11111 9.77778C2.37333 9.77778 1.77778 9.18222 1.77778 8.44444C1.77778 7.70667 2.37333 7.11111 3.11111 7.11111C3.84889 7.11111 4.44444 7.70667 4.44444 8.44444C4.44444 9.18222 3.84889 9.77778 3.11111 9.77778ZM12.8889 9.77778C12.1511 9.77778 11.5556 9.18222 11.5556 8.44444C11.5556 7.70667 12.1511 7.11111 12.8889 7.11111C13.6267 7.11111 14.2222 7.70667 14.2222 8.44444C14.2222 9.18222 13.6267 9.77778 12.8889 9.77778ZM1.77778 5.33333L3.11111 1.33333H12.8889L14.2222 5.33333H1.77778Z" fill="black"/>
</svg>
